<?xml version="1.0" encoding="utf-8"?>
<!-- Generator: Adobe Illustrator 15.1.0, SVG Export Plug-In . SVG Version: 6.00 Build 0)  -->
<!DOCTYPE svg PUBLIC "-//W3C//DTD SVG 1.1//EN" "http://www.w3.org/Graphics/SVG/1.1/DTD/svg11.dtd">
<svg version="1.1" id="Layer_1" xmlns="http://www.w3.org/2000/svg" xmlns:xlink="http://www.w3.org/1999/xlink" x="0px" y="0px"
	 width="192px" height="35px" viewBox="0 0 192 35" enable-background="new 0 0 192 35" xml:space="preserve">
<g>
	<path fill-rule="evenodd" clip-rule="evenodd" fill="#FFFFFF" d="M56.329,1.242c1.806,4.744-6.642,1.534-7.575,6.82
		c-0.913,5.186,5.147,12.875,4.047,18.05c-1.584,7.435-9.332,11.012-14.749,7.402c-8.122-7.22,6.772-13.54,7.669-12.186
		c2.287,0.82-12.226,7.469-4.508,10.153c5.19,1.806,6.969-5.112,6.608-9.416c-0.475-5.667-5.151-10.614-3.763-15.309
		C44.944,3.764,50.83-2.633,56.329,1.242"/>
	<path fill-rule="evenodd" clip-rule="evenodd" fill="#FFFFFF" d="M74.38,1.242c-2.254-2.704-8.89-1.014-11.422,5.266
		c-1.643,4.076,0.871,15.3,0.871,15.3s0.297,1.7,0.364,2.18c0.63,4.613,0.483,4.106-1.321,5.466c-1.189,0.893-6.981,1.699-7.22,0.45
		c-0.621-3.266,3.894-5.35,6.507-6.61c0.519-0.247,1.792-0.775,1.792-0.775s-0.08-0.482-0.123-0.71
		c-1.167,0.492-3.097,1.341-4.216,1.981c-2.415,1.383-5.384,3.323-6.893,6.341c-0.616,6.402,15.576,2.744,16.757-2.214
		c1.222-5.143-3.997-12.178-3.1-17.363C67.884,1.912,75.316,4.047,74.38,1.242"/>
	<path fill-rule="evenodd" clip-rule="evenodd" fill="#FFFFFF" d="M15.679,15.306C13.962,27.436,30.766,28.91,45.699,4.331
		c0.934-1.058-2.162,6.195-1.244,4.979C29.52,33.891,11.5,30.413,9.64,22.453c-0.56-2.402-0.235-4.26,0.727-6.931
		c0,0-8.537-0.906-10.224-3.442C-0.723,10.775,2.63,9.368,2.63,9.368s7.582,1.004,9.928,0.884c0.164-0.251,0.219-0.337,0.319-0.491
		c3.989-5.971,10.719-10.484,16.733-8.819c0.677,0.187,2.487,4.233,0.31,6.729C28.066,9.801,21.542,14.287,15.679,15.306
		 M17.385,9.957c4.102-0.361,10.116-3.103,9.838-6.452C23.873,3.223,20.098,4.869,17.385,9.957"/>
	<path fill-rule="evenodd" clip-rule="evenodd" fill="#FFFFFF" d="M98.01,16.249c1.811-3.833,2.17-6.091,3.387-7.877
		c8.997-11.823-0.618,14.25-2.245,20.773c5.013-1.112,5.125-6.456,7.82-9.882c2.942-3.738,7.586-7.206,14.313-7.158
		c1.003,5.653-0.417,12.597,2.962,15.875c5.205,1.763,11.521-5.992,13.839-10.897c1.392-2.951,0.181-5.504-0.08-6.131
		c-2.343,4.347-7.897,14.438-10.649,12.674c-5.911-4.36,1.657-14.516-2.092-16.849c-10.151-2.429-16.021,8.486-17.718,7.108
		c1.306-4.327,3.611-8.8,1.914-9.872c-6.956-3.129-9.332,3.113-9.332,3.113c-1.619,2.076-3.94,15.091-10.341,18.601
		c-5.612,3.105-10.977,0.413-9.72-8.458c5.686-1.908,11.48-5.246,12.961-7.655c2.436-3.965,0.986-8.483,0.312-8.67
		c-8.381-2.323-18.138,6.87-19.949,16.792c-0.549,0.23-4.726,2.035-6.869,2.942c-0.42,0.253-2.866,1.929-0.548,1.091
		c2.319-0.839,5.536-1.802,7.391-2.378c0.003,0.065,0.006,0.332,0.011,0.399c0.535,8.943,11.307,12.946,18.975,6.004
		C94.998,23.671,98.01,16.249,98.01,16.249 M80.776,14.186c8.404-4.268,12.106-8.2,9.509-10.811
		C85.185,4.279,82.232,9.245,80.776,14.186"/>
	<path fill-rule="evenodd" clip-rule="evenodd" fill="#FFFFFF" d="M148.142,2.487c2.708,0.677,3.386,1.581,2.931,3.611
		c-0.45,2.031-12.32,0.161-10.584,12.747c0.902,6.544,6.834,8.368,13.355,5.281c6.607-3.126,6.268-3.193,9.141-4.882
		c1.436-0.837-1.124,1.129-1.657,2.723c-0.369,0.303-2.589,2.075-2.95,2.358c-2.973,1.714-5.665,3.729-9.531,4.22
		c-9.883,1.263-13.312-8.7-11.912-14.999C138.275,7.507,143.854,2.264,148.142,2.487"/>
	<path fill-rule="evenodd" clip-rule="evenodd" fill="#FFFFFF" d="M162.833,21.667c0.867,9.002,8.831,3.171,14.518-1.731
		c2.31-1.743,6.059-0.077,3.833,1.805c-13.083,11.056-21.329,8.993-22.955,2.024c-2.252-9.669,7.897-20.487,16.47-20.254
		c0.703,0.017,5.367,1.959,0.169,8.526C171.276,16.574,165.561,19.785,162.833,21.667 M162.984,19.244
		c3.134-2.086,11.076-7.516,10.813-12.578C170.448,6.386,163.771,13.912,162.984,19.244"/>
	<g>
		<path fill-rule="evenodd" clip-rule="evenodd" fill="#00B2BF" d="M191.531,22.424c0.896,1.113,0.52,3.301-1.224,4.708
			c-1.744,1.404-4.192,1.495-5.09,0.381c-0.896-1.115,0.939-3.582,1.534-4.56C187.348,21.976,190.634,21.314,191.531,22.424"/>
	</g>
</g>
</svg>
